<svg version="1.1" id="Layer_1" xmlns="http://www.w3.org/2000/svg" xmlns:xlink="http://www.w3.org/1999/xlink" x="0px" y="0px"
	 width="100%" viewBox="0 0 332 306" enable-background="new 0 0 332 306" xml:space="preserve">
<path fill="#000000" opacity="1.000000" stroke="none" 
	d="
M193.000000,307.000000 
	C128.666687,307.000000 64.833382,307.000000 1.000051,307.000000 
	C1.000034,205.000061 1.000034,103.000122 1.000017,1.000134 
	C111.666565,1.000089 222.333130,1.000089 332.999756,1.000044 
	C332.999847,102.999870 332.999847,204.999741 332.999939,306.999817 
	C286.500000,307.000000 240.000000,307.000000 193.000000,307.000000 
M217.012634,122.987373 
	C217.012634,122.987373 217.125610,122.987556 216.944031,122.454330 
	C216.633636,122.260788 216.323257,122.067253 216.017426,121.981148 
	C216.017426,121.981148 216.124863,121.976570 215.926102,121.433907 
	C215.592712,121.271454 215.259323,121.109001 214.724670,120.873230 
	C214.724670,120.873230 214.535751,120.974152 214.071960,120.493713 
	C213.103500,119.610291 212.135056,118.726868 210.795807,117.174980 
	C210.338837,113.539589 209.651550,109.914055 209.495377,106.265793 
	C209.362488,103.161980 209.841537,100.031975 209.982605,96.103294 
	C212.299530,84.714684 214.616470,73.326065 217.054199,61.279610 
	C217.313751,60.216190 217.573303,59.152771 217.944565,57.317577 
	C217.952316,56.538387 217.960068,55.759193 218.067215,54.110077 
	C218.011215,44.759846 217.955215,35.409615 217.845093,25.410025 
	C217.549164,24.600100 217.253235,23.790174 216.964584,22.273365 
	C215.650711,21.194017 214.336823,20.114670 212.290039,19.020519 
	C211.804764,19.075594 211.319504,19.130669 210.090179,19.065725 
	C208.017883,20.303915 205.945587,21.542105 203.774292,22.768587 
	C203.774292,22.768587 203.762558,22.867598 203.073227,22.779226 
	C201.729935,24.003241 200.386642,25.227255 198.593643,26.859983 
	C198.206390,27.564640 197.819122,28.269295 197.057800,29.167566 
	C196.695892,29.589613 196.333984,30.011658 195.577606,30.900913 
	C195.399933,31.257946 195.222275,31.614977 194.877625,32.613262 
	C193.952393,34.086308 193.027161,35.559353 191.508911,37.375839 
	C190.674973,38.907024 189.841034,40.438206 188.980484,41.983185 
	C188.980484,41.983185 188.970917,42.011589 188.290024,42.118076 
	C186.746536,43.558117 184.983109,44.826687 183.701294,46.470741 
	C180.033234,51.175388 176.560608,56.032410 172.404099,61.145996 
	C170.575241,63.426632 168.746384,65.707268 166.983551,67.985817 
	C166.983551,67.985817 166.971771,67.920807 166.267212,67.969757 
	C164.493271,69.298035 162.719315,70.626305 160.951279,72.055977 
	C160.951279,72.055977 161.052673,72.050095 160.837738,71.672234 
	C160.677795,71.417336 160.457779,71.234924 159.589890,70.731979 
	C155.734207,68.511932 151.878525,66.291885 147.613144,63.605663 
	C146.459854,62.745537 145.306580,61.885410 143.786865,60.435863 
	C137.769958,55.681511 131.753036,50.927158 125.077698,45.612789 
	C121.366417,45.434414 117.192276,44.180809 114.125999,45.500774 
	C112.420998,46.234745 111.773392,51.326939 112.031593,54.336315 
	C112.628021,61.287430 114.067215,68.166237 115.274139,75.581184 
	C115.509155,75.834435 115.744171,76.087677 115.942795,76.671600 
	C115.942795,76.671600 115.998238,76.999611 115.916473,77.829231 
	C116.640541,81.880745 117.364601,85.932266 118.071182,90.666809 
	C118.102654,91.120567 118.134125,91.574318 118.101974,92.707001 
	C118.426620,93.780991 118.751266,94.854988 119.082481,96.710342 
	C120.120598,102.861755 121.158707,109.013168 122.162216,115.946793 
	C123.063492,120.928368 123.964775,125.909950 124.916176,130.933502 
	C124.916176,130.933502 124.910591,130.868362 124.347397,131.051331 
	C123.918411,131.699982 123.489433,132.348633 122.407280,133.277649 
	C114.621994,135.679092 106.824127,138.040634 99.054008,140.490173 
	C82.376122,145.747894 65.607864,150.751968 49.110210,156.527206 
	C44.472591,158.150665 40.552315,161.970505 36.523102,165.069077 
	C35.645313,165.744125 35.023651,168.430435 35.476120,168.825653 
	C36.595547,169.803436 38.405315,169.990860 40.303162,170.658508 
	C40.690468,170.753906 41.077770,170.849304 40.831669,171.372559 
	C41.818291,171.857986 42.804913,172.343430 43.791534,172.828873 
	C43.704815,172.203018 43.618099,171.577148 43.893929,171.188477 
	C44.401218,171.464188 44.908508,171.739914 45.997334,172.741028 
	C51.671452,172.833633 57.345570,172.926239 63.669472,173.128845 
	C64.105736,173.092102 64.541992,173.055359 65.478241,173.014160 
	C65.639603,172.972397 65.800957,172.930618 66.811874,172.935013 
	C71.520401,172.601395 76.228935,172.267776 81.512970,171.993698 
	C81.704285,171.969376 81.895599,171.945053 83.012817,171.953537 
	C91.340767,171.966949 99.668724,171.980362 108.849228,172.117279 
	C112.564087,171.727692 116.278946,171.338104 120.928375,171.039597 
	C128.244186,170.994507 135.587524,171.316605 142.865768,170.770645 
	C147.445877,170.427078 151.003784,171.396393 154.013306,175.690292 
	C154.064896,176.270020 154.116501,176.849762 154.159027,178.155792 
	C154.145111,179.130936 154.131195,180.106094 154.020386,181.814621 
	C154.263855,182.963608 154.507324,184.112579 154.799210,185.830673 
	C154.837921,186.209351 154.876633,186.588013 154.897705,187.712845 
	C155.282593,189.136047 155.667465,190.559265 156.071457,192.594513 
	C156.323029,193.363251 156.574600,194.131973 156.536163,195.275604 
	C156.741440,195.861786 156.946732,196.447952 157.032455,197.834305 
	C157.332397,199.310898 157.632355,200.787491 157.965591,202.651611 
	C157.965591,202.651611 158.056625,203.029770 157.987839,203.684906 
	C158.302444,204.216660 158.617065,204.748413 158.950485,205.657196 
	C158.950485,205.657196 159.043701,206.022995 158.960541,206.823746 
	C159.643112,209.576965 160.325684,212.330185 160.986969,215.015671 
	C160.986969,215.015671 160.945648,214.957932 161.036179,215.505524 
	C161.082092,215.684753 161.127991,215.863983 161.053619,216.790222 
	C161.354630,217.924225 161.655640,219.058243 161.982849,220.610580 
	C161.982849,220.610580 162.071152,221.020340 161.979660,221.770782 
	C162.655045,223.538208 163.330429,225.305649 163.989517,227.005646 
	C163.989517,227.005646 163.945221,226.952271 163.974014,227.806549 
	C165.316483,231.843719 166.658936,235.880875 168.226852,240.892166 
	C168.304001,241.216400 168.381149,241.540649 168.752609,242.418137 
	C168.857407,245.864258 168.465317,249.415115 169.165161,252.735825 
	C170.895081,260.944275 173.045563,269.068909 175.243683,277.168427 
	C175.558701,278.329163 177.074783,279.163971 178.283585,280.713837 
	C178.844269,281.808228 179.404938,282.902588 180.328461,284.582062 
	C182.294235,285.656372 184.260010,286.730713 186.709686,287.447113 
	C187.487915,286.290192 188.266144,285.133301 189.001541,283.945038 
	C189.001541,283.945038 188.990311,283.994904 189.679031,283.749542 
	C190.476303,282.227234 191.695175,280.784210 191.999069,279.169098 
	C193.446472,271.476501 194.747055,263.752258 195.898224,256.009308 
	C196.740326,250.345169 197.269669,244.634552 198.291443,238.306442 
	C198.474060,236.900208 198.656677,235.493988 198.952484,233.270264 
	C198.952835,232.170792 198.953171,231.071320 199.141006,229.169464 
	C200.050720,222.151443 200.960434,215.133408 201.771332,207.518661 
	C201.712051,206.929138 201.652756,206.339600 201.698502,204.759964 
	C201.798920,202.456787 201.899338,200.153595 202.581223,197.409561 
	C203.020691,196.574005 203.672623,195.784042 203.863358,194.895111 
	C204.758163,190.724457 205.139816,186.396774 206.486938,182.388046 
	C207.272964,180.048965 209.237305,176.839859 211.187317,176.420471 
	C215.295319,175.536942 219.758652,176.013229 224.047791,176.323654 
	C233.693634,177.021790 243.322174,177.958862 253.895432,178.904510 
	C261.305267,178.692749 268.715118,178.480988 276.907013,178.201447 
	C278.831635,176.959778 281.509338,176.113556 282.436462,174.348053 
	C283.144928,172.998871 282.246124,169.903748 280.999908,168.603302 
	C277.600739,165.056183 273.849884,161.755142 269.859863,158.882324 
	C258.487762,150.694473 247.007538,142.649780 235.405197,134.791885 
	C230.149399,131.232285 224.504181,128.247726 218.893524,124.470718 
	C218.593887,124.273781 218.294266,124.076851 218.000198,123.998856 
	C218.000198,123.998856 218.119125,123.993279 217.943283,123.457603 
	C217.633133,123.263199 217.322998,123.068802 217.012634,122.987373 
z"/>
<path fill="#020202" opacity="1.000000" stroke="none" 
	d="
M154.168106,177.429489 
	C154.116501,176.849762 154.064896,176.270020 153.873444,174.932098 
	C152.705750,170.585480 150.006470,169.187012 146.606125,169.211258 
	C137.704987,169.274704 128.805161,169.521164 119.449951,169.664551 
	C115.298706,169.822342 111.602303,170.010269 107.444565,170.163223 
	C100.648033,170.143600 94.312828,170.158951 87.617752,170.012024 
	C83.851105,169.964844 80.444344,170.079956 76.602196,170.161530 
	C74.417862,170.148026 72.668915,170.168060 70.550507,170.027679 
	C64.772041,170.080261 59.363049,170.293243 53.521461,170.516800 
	C50.531185,171.023453 47.973495,171.519547 45.415802,172.015625 
	C44.908508,171.739914 44.401218,171.464188 43.196243,171.021027 
	C42.154064,170.883942 41.809570,170.914322 41.465076,170.944702 
	C41.077770,170.849304 40.690468,170.753906 40.116196,170.141815 
	C40.866550,167.517166 41.230343,164.480789 42.851273,163.479462 
	C47.293037,160.735657 52.186649,158.659546 57.046585,156.674622 
	C61.749172,154.753952 66.620628,153.240646 71.439400,151.611984 
	C77.934555,149.416702 84.394852,147.093109 90.970131,145.165878 
	C100.924210,142.248276 111.043282,139.869949 120.911102,136.698776 
	C123.290016,135.934265 124.958168,132.958038 126.985229,130.598587 
	C126.984970,129.128143 126.952660,128.058060 127.059525,126.629242 
	C127.101814,123.623077 127.272354,120.932777 126.856117,118.336540 
	C125.764465,111.527267 124.571251,104.724861 123.081070,97.994423 
	C122.609650,95.865265 121.072281,93.972115 119.986801,91.965820 
	C119.950867,91.960670 119.940430,92.032524 119.951263,91.680344 
	C119.870338,90.868523 119.778587,90.408875 119.697449,89.504135 
	C119.514786,86.671150 119.321495,84.283257 119.187065,81.487183 
	C118.979469,78.633141 118.863976,76.159378 118.417732,73.746788 
	C117.168625,66.993729 115.556549,60.300514 114.520897,53.517540 
	C113.656166,47.854012 115.526466,45.972412 121.173752,46.276508 
	C126.409676,50.331455 131.383682,54.239094 136.617172,57.761192 
	C138.850098,59.263950 141.624786,59.961716 144.153290,61.025284 
	C145.306580,61.885410 146.459854,62.745537 147.861786,64.193115 
	C150.817429,70.591263 156.781540,72.271126 161.690201,75.214851 
	C162.254349,75.553169 163.995728,73.928490 165.515503,73.099380 
	C167.431961,71.570900 169.263367,70.347794 170.571854,68.707542 
	C174.606903,63.649395 178.595642,58.539188 182.301529,53.238857 
	C184.788940,49.681225 186.765686,45.766529 188.970917,42.011589 
	C188.970917,42.011589 188.980484,41.983185 189.331177,41.921463 
	C190.785828,40.565784 191.889801,39.271828 193.273026,37.842846 
	C194.366821,36.802937 195.181381,35.898048 196.299805,34.906471 
	C197.443054,33.051174 198.282425,31.282564 199.372223,29.544880 
	C199.781479,29.520359 199.940308,29.464912 200.343109,29.384005 
	C201.266174,28.501310 201.945297,27.644077 202.831619,26.599321 
	C203.294098,26.140451 203.549393,25.869106 204.160767,25.521248 
	C207.746338,24.392826 210.975830,23.340916 214.463440,22.448032 
	C215.072617,22.806910 215.423660,23.006760 215.800201,23.488485 
	C216.055664,24.477224 216.285645,25.184086 216.526215,26.366562 
	C216.446701,36.284260 216.356583,45.726341 216.168610,55.422615 
	C215.994781,56.403099 215.918808,57.129398 215.598007,58.097847 
	C214.579239,60.131416 213.481216,61.854034 213.083984,63.725410 
	C210.511841,75.842827 207.977158,87.971169 205.708237,100.147751 
	C205.176010,103.004013 205.711868,106.059296 205.751770,109.450806 
	C205.813843,111.588516 205.880508,113.298454 205.847137,115.264198 
	C207.499268,117.340775 209.251404,119.161537 211.312759,121.091743 
	C212.045029,121.307213 212.468079,121.413239 212.884064,121.858955 
	C213.746307,123.349678 214.392044,124.827805 215.520782,125.599281 
	C223.542557,131.082092 231.769928,136.267822 239.727539,141.839935 
	C252.129913,150.524368 264.502777,159.263306 276.617126,168.340881 
	C281.735870,172.176468 281.329254,173.725174 275.499390,176.890396 
	C267.677124,176.982132 260.321228,177.065125 252.544312,177.097168 
	C248.499023,176.751709 244.870743,176.499512 241.251312,176.154510 
	C231.583679,175.232971 221.932281,174.097458 212.248810,173.405365 
	C207.928055,173.096527 205.734192,175.799469 205.097458,180.069473 
	C204.714706,182.636169 203.498322,185.074158 203.066620,187.639008 
	C202.499710,191.007248 202.336548,194.443451 201.999756,197.850418 
	C201.899338,200.153595 201.798920,202.456787 201.395142,205.353180 
	C196.681305,209.884094 197.548767,214.995041 197.908890,220.462555 
	C197.679321,224.007202 197.507248,227.095306 197.235153,230.489227 
	C197.104965,231.874954 197.074799,232.954849 197.030029,234.027344 
	C197.015411,234.019958 197.041855,234.051346 196.759094,234.246918 
	C195.672867,236.348007 194.312546,238.210861 194.162766,240.166412 
	C193.530502,248.420685 193.258972,256.702576 192.578339,265.135254 
	C191.621719,266.370056 190.942261,267.443939 190.296722,268.931885 
	C189.975082,272.619354 189.619537,275.892822 188.923676,279.090271 
	C187.054871,279.597656 185.421524,280.001068 184.026627,280.813751 
	C182.554459,281.671448 181.309723,282.919495 179.965637,283.996979 
	C179.404938,282.902588 178.844269,281.808228 178.179962,280.008972 
	C174.870316,266.824371 171.664307,254.344620 168.458298,241.864883 
	C168.381149,241.540649 168.304001,241.216400 168.187088,240.071045 
	C166.746613,235.150711 165.345917,231.051483 163.945221,226.952271 
	C163.945221,226.952271 163.989517,227.005646 164.278320,226.684021 
	C164.476654,224.593460 164.386185,222.824554 164.356842,220.763016 
	C163.617783,218.972244 162.817596,217.474091 162.008636,215.986649 
	C161.999847,215.997360 162.015869,215.987503 161.937912,215.719788 
	C161.555191,215.287354 161.250412,215.122650 160.945648,214.957932 
	C160.945648,214.957932 160.986969,215.015671 161.216187,214.655029 
	C161.350677,212.219391 161.255951,210.144409 161.250443,207.718231 
	C160.269180,204.176926 159.198715,200.986816 158.113129,197.595032 
	C158.098022,197.393372 157.983231,197.005539 158.013611,196.674591 
	C158.006744,195.902466 157.969498,195.461304 157.960449,194.631851 
	C157.905212,193.470917 157.821793,192.698288 157.744080,191.576508 
	C157.601974,189.839218 157.454163,188.451065 157.375885,186.714111 
	C156.352982,183.386703 155.260544,180.408096 154.168106,177.429489 
z"/>
<path fill="#353535" opacity="1.000000" stroke="none" 
	d="
M126.953178,130.998932 
	C124.958168,132.958038 123.290016,135.934265 120.911102,136.698776 
	C111.043282,139.869949 100.924210,142.248276 90.970131,145.165878 
	C84.394852,147.093109 77.934555,149.416702 71.439400,151.611984 
	C66.620628,153.240646 61.749172,154.753952 57.046585,156.674622 
	C52.186649,158.659546 47.293037,160.735657 42.851273,163.479462 
	C41.230343,164.480789 40.866550,167.517166 39.933456,170.060486 
	C38.405315,169.990860 36.595547,169.803436 35.476120,168.825653 
	C35.023651,168.430435 35.645313,165.744125 36.523102,165.069077 
	C40.552315,161.970505 44.472591,158.150665 49.110210,156.527206 
	C65.607864,150.751968 82.376122,145.747894 99.054008,140.490173 
	C106.824127,138.040634 114.621994,135.679092 123.041412,133.023438 
	C124.087227,132.135605 124.498909,131.501984 124.910599,130.868362 
	C124.910591,130.868362 124.916176,130.933502 125.219589,131.061783 
	C125.999725,131.126358 126.476448,131.062653 126.953178,130.998932 
z"/>
<path fill="#313131" opacity="1.000000" stroke="none" 
	d="
M275.965820,176.881668 
	C281.329254,173.725174 281.735870,172.176468 276.617126,168.340881 
	C264.502777,159.263306 252.129913,150.524368 239.727539,141.839935 
	C231.769928,136.267822 223.542557,131.082092 215.520782,125.599281 
	C214.392044,124.827805 213.746307,123.349678 213.310440,121.768593 
	C214.007843,121.217079 214.271790,121.095619 214.535751,120.974152 
	C214.535751,120.974152 214.724670,120.873230 214.873383,121.217224 
	C215.389694,121.699669 215.757278,121.838120 216.124863,121.976578 
	C216.124863,121.976570 216.017426,121.981148 216.055481,122.228790 
	C216.437561,122.646805 216.781586,122.817177 217.125610,122.987556 
	C217.125610,122.987556 217.012634,122.987373 217.051605,123.232353 
	C217.433411,123.649315 217.776276,123.821297 218.119125,123.993279 
	C218.119125,123.993279 218.000198,123.998856 218.066620,124.206902 
	C218.433884,124.610733 218.734756,124.806519 219.035614,125.002304 
	C224.504181,128.247726 230.149399,131.232285 235.405197,134.791885 
	C247.007538,142.649780 258.487762,150.694473 269.859863,158.882324 
	C273.849884,161.755142 277.600739,165.056183 280.999908,168.603302 
	C282.246124,169.903748 283.144928,172.998871 282.436462,174.348053 
	C281.509338,176.113556 278.831635,176.959778 276.481140,177.887817 
	C276.025482,177.343353 275.995667,177.112518 275.965820,176.881668 
z"/>
<path fill="#444444" opacity="1.000000" stroke="none" 
	d="
M202.290497,197.629990 
	C202.336548,194.443451 202.499710,191.007248 203.066620,187.639008 
	C203.498322,185.074158 204.714706,182.636169 205.097458,180.069473 
	C205.734192,175.799469 207.928055,173.096527 212.248810,173.405365 
	C221.932281,174.097458 231.583679,175.232971 241.251312,176.154510 
	C244.870743,176.499512 248.499023,176.751709 252.540436,177.372208 
	C252.957657,178.065033 252.957703,178.431854 252.957764,178.798676 
	C243.322174,177.958862 233.693634,177.021790 224.047791,176.323654 
	C219.758652,176.013229 215.295319,175.536942 211.187317,176.420471 
	C209.237305,176.839859 207.272964,180.048965 206.486938,182.388046 
	C205.139816,186.396774 204.758163,190.724457 203.863358,194.895111 
	C203.672623,195.784042 203.020691,196.574005 202.290497,197.629990 
z"/>
<path fill="#313131" opacity="1.000000" stroke="none" 
	d="
M205.756348,109.023018 
	C205.711868,106.059296 205.176010,103.004013 205.708237,100.147751 
	C207.977158,87.971169 210.511841,75.842827 213.083984,63.725410 
	C213.481216,61.854034 214.579239,60.131416 215.717560,58.210701 
	C216.081970,58.081398 216.320572,58.306900 216.301331,58.620071 
	C216.499207,59.934647 216.716293,60.936050 216.933411,61.937450 
	C214.616470,73.326065 212.299530,84.714684 209.745911,96.766701 
	C208.258240,101.294411 207.007294,105.158714 205.756348,109.023018 
z"/>
<path fill="#313131" opacity="1.000000" stroke="none" 
	d="
M192.855499,264.974365 
	C193.258972,256.702576 193.530502,248.420685 194.162766,240.166412 
	C194.312546,238.210861 195.672867,236.348007 196.796661,234.610229 
	C197.390793,236.166840 197.664612,237.555756 197.938416,238.944656 
	C197.269669,244.634552 196.740326,250.345169 195.898224,256.009308 
	C194.747055,263.752258 193.446472,271.476501 191.999069,279.169098 
	C191.695175,280.784210 190.476303,282.227234 189.382050,283.470154 
	C189.144714,281.849243 189.204346,280.507751 189.263992,279.166260 
	C189.619537,275.892822 189.975082,272.619354 190.564545,268.741211 
	C191.484131,267.082458 192.169830,266.028412 192.855499,264.974365 
z"/>
<path fill="#444444" opacity="1.000000" stroke="none" 
	d="
M121.016876,45.973122 
	C115.526466,45.972412 113.656166,47.854012 114.520897,53.517540 
	C115.556549,60.300514 117.168625,66.993729 118.417732,73.746788 
	C118.863976,76.159378 118.979469,78.633141 119.029633,81.252914 
	C117.874962,79.951103 116.936600,78.475357 115.998238,76.999611 
	C115.998238,76.999611 115.942795,76.671600 115.819023,76.298241 
	C115.518356,75.641380 115.341469,75.357872 115.164566,75.074371 
	C114.067215,68.166237 112.628021,61.287430 112.031593,54.336315 
	C111.773392,51.326939 112.420998,46.234745 114.125999,45.500774 
	C117.192276,44.180809 121.366417,45.434414 124.930023,45.912212 
	C123.527184,46.132130 122.272034,46.052628 121.016876,45.973122 
z"/>
<path fill="#1C1C1C" opacity="1.000000" stroke="none" 
	d="
M188.630463,42.064831 
	C186.765686,45.766529 184.788940,49.681225 182.301529,53.238857 
	C178.595642,58.539188 174.606903,63.649395 170.571854,68.707542 
	C169.263367,70.347794 167.431961,71.570900 165.392014,72.948868 
	C164.944290,72.912933 164.697433,72.611786 164.895630,72.342636 
	C165.719803,70.689262 166.345779,69.305031 166.971771,67.920807 
	C166.971771,67.920807 166.983551,67.985817 167.294373,67.957489 
	C169.407196,65.562614 171.209167,63.196068 173.011139,60.829514 
	C176.560608,56.032410 180.033234,51.175388 183.701294,46.470741 
	C184.983109,44.826687 186.746536,43.558117 188.630463,42.064831 
z"/>
<path fill="#353535" opacity="1.000000" stroke="none" 
	d="
M120.022736,91.970963 
	C121.072281,93.972115 122.609650,95.865265 123.081070,97.994423 
	C124.571251,104.724861 125.764465,111.527267 126.856117,118.336540 
	C127.272354,120.932777 127.101814,123.623077 126.885574,126.304581 
	C125.113914,122.613960 123.655365,118.889275 122.196823,115.164581 
	C121.158707,109.013168 120.120598,102.861755 119.240448,96.019211 
	C119.606522,94.209030 119.814621,93.089996 120.022736,91.970963 
z"/>
<path fill="#444444" opacity="1.000000" stroke="none" 
	d="
M168.605453,242.141510 
	C171.664307,254.344620 174.870316,266.824371 178.055679,279.726868 
	C177.074783,279.163971 175.558701,278.329163 175.243683,277.168427 
	C173.045563,269.068909 170.895081,260.944275 169.165161,252.735825 
	C168.465317,249.415115 168.857407,245.864258 168.605453,242.141510 
z"/>
<path fill="#1C1C1C" opacity="1.000000" stroke="none" 
	d="
M121.173752,46.276508 
	C122.272034,46.052628 123.527184,46.132130 125.259232,46.192223 
	C131.753036,50.927158 137.769958,55.681511 143.970078,60.730576 
	C141.624786,59.961716 138.850098,59.263950 136.617172,57.761192 
	C131.383682,54.239094 126.409676,50.331455 121.173752,46.276508 
z"/>
<path fill="#353535" opacity="1.000000" stroke="none" 
	d="
M119.904808,169.694672 
	C128.805161,169.521164 137.704987,169.274704 146.606125,169.211258 
	C150.006470,169.187012 152.705750,170.585480 153.838577,174.496948 
	C151.003784,171.396393 147.445877,170.427078 142.865768,170.770645 
	C135.587524,171.316605 128.244186,170.994507 120.439804,170.680527 
	C119.935760,170.112534 119.920288,169.903610 119.904808,169.694672 
z"/>
<path fill="#1C1C1C" opacity="1.000000" stroke="none" 
	d="
M165.067780,73.063446 
	C163.995728,73.928490 162.254349,75.553169 161.690201,75.214851 
	C156.781540,72.271126 150.817429,70.591263 148.066620,64.426201 
	C151.878525,66.291885 155.734207,68.511932 160.016190,71.094643 
	C160.649490,71.651176 160.852890,71.848778 161.052673,72.050095 
	C161.052673,72.050095 160.951279,72.055977 161.204620,72.219460 
	C162.537781,72.459229 163.617615,72.535507 164.697433,72.611786 
	C164.697433,72.611786 164.944290,72.912933 165.067780,73.063446 
z"/>
<path fill="#707070" opacity="1.000000" stroke="none" 
	d="
M205.751770,109.450806 
	C207.007294,105.158714 208.258240,101.294411 209.779526,97.171829 
	C209.841537,100.031975 209.362488,103.161980 209.495377,106.265793 
	C209.651550,109.914055 210.338837,113.539589 210.755280,117.712540 
	C210.564163,118.385651 210.413544,118.521194 210.019562,118.463661 
	C208.499863,117.183182 207.223511,116.095779 205.947159,115.008385 
	C205.880508,113.298454 205.813843,111.588516 205.751770,109.450806 
z"/>
<path fill="#4E4E4E" opacity="1.000000" stroke="none" 
	d="
M216.266449,55.168427 
	C216.356583,45.726341 216.446701,36.284260 216.872009,26.414322 
	C217.437866,26.010775 217.668549,26.035078 217.899216,26.059383 
	C217.955215,35.409615 218.011215,44.759846 217.592545,54.595535 
	C216.834076,55.110134 216.550262,55.139278 216.266449,55.168427 
z"/>
<path fill="#0D0D0D" opacity="1.000000" stroke="none" 
	d="
M188.923676,279.090271 
	C189.204346,280.507751 189.144714,281.849243 189.037689,283.592834 
	C188.990311,283.994904 189.001541,283.945038 188.739685,284.103210 
	C187.727142,285.442596 186.976456,286.623810 186.225769,287.805054 
	C184.260010,286.730713 182.294235,285.656372 180.147049,284.289520 
	C181.309723,282.919495 182.554459,281.671448 184.026627,280.813751 
	C185.421524,280.001068 187.054871,279.597656 188.923676,279.090271 
z"/>
<path fill="#393939" opacity="1.000000" stroke="none" 
	d="
M253.426605,178.851593 
	C252.957703,178.431854 252.957657,178.065033 252.961487,177.423172 
	C260.321228,177.065125 267.677124,176.982132 275.499390,176.890396 
	C275.995667,177.112518 276.025482,177.343353 276.090088,177.921722 
	C268.715118,178.480988 261.305267,178.692749 253.426605,178.851593 
z"/>
<path fill="#555555" opacity="1.000000" stroke="none" 
	d="
M87.977631,170.174316 
	C94.312828,170.158951 100.648033,170.143600 107.471237,170.462311 
	C107.971718,171.195511 107.984200,171.594635 107.996674,171.993774 
	C99.668724,171.980362 91.340767,171.966949 82.864059,171.801483 
	C84.469414,171.157730 86.223518,170.666016 87.977631,170.174316 
z"/>
<path fill="#353535" opacity="1.000000" stroke="none" 
	d="
M53.954056,170.506241 
	C59.363049,170.293243 64.772041,170.080261 70.267319,170.174805 
	C68.896896,170.838303 67.440201,171.194275 65.722427,171.727295 
	C65.300308,172.275772 65.139282,172.647202 64.978256,173.018631 
	C64.541992,173.055359 64.105736,173.092102 63.264381,172.757080 
	C59.890881,171.758957 56.922466,171.132599 53.954056,170.506241 
z"/>
<path fill="#4E4E4E" opacity="1.000000" stroke="none" 
	d="
M197.335175,230.183395 
	C197.507248,227.095306 197.679321,224.007202 198.082870,220.129578 
	C199.499619,215.598495 200.684875,211.856949 201.870148,208.115387 
	C200.960434,215.133408 200.050720,222.151443 198.642807,229.624512 
	C197.874802,230.114182 197.604996,230.148788 197.335175,230.183395 
z"/>
<path fill="#313131" opacity="1.000000" stroke="none" 
	d="
M201.820740,207.817017 
	C200.684875,211.856949 199.499619,215.598495 198.140366,219.673035 
	C197.548767,214.995041 196.681305,209.884094 201.342621,205.848236 
	C201.652756,206.339600 201.712051,206.929138 201.820740,207.817017 
z"/>
<path fill="#555555" opacity="1.000000" stroke="none" 
	d="
M163.959625,227.379410 
	C165.345917,231.051483 166.746613,235.150711 168.074356,239.583984 
	C166.658936,235.880875 165.316483,231.843719 163.959625,227.379410 
z"/>
<path fill="#313131" opacity="1.000000" stroke="none" 
	d="
M214.205338,22.289009 
	C210.975830,23.340916 207.746338,24.392826 204.164932,25.179255 
	C203.796204,24.231714 203.779388,23.549656 203.762558,22.867598 
	C203.762558,22.867598 203.774292,22.768587 204.169861,22.773262 
	C206.655014,21.580538 208.744629,20.383141 210.834229,19.185745 
	C211.319504,19.130669 211.804764,19.075594 212.707062,19.315596 
	C213.484497,20.503450 213.844925,21.396231 214.205338,22.289009 
z"/>
<path fill="#4E4E4E" opacity="1.000000" stroke="none" 
	d="
M115.957352,77.414421 
	C116.936600,78.475357 117.874962,79.951103 118.970764,81.661110 
	C119.321495,84.283257 119.514786,86.671150 119.432007,89.511452 
	C118.800171,89.970505 118.444420,89.977142 118.088661,89.983780 
	C117.364601,85.932266 116.640541,81.880745 115.957352,77.414421 
z"/>
<path fill="#707070" opacity="1.000000" stroke="none" 
	d="
M122.179520,115.555687 
	C123.655365,118.889275 125.113914,122.613960 126.746407,126.663315 
	C126.952660,128.058060 126.984970,129.128143 126.985229,130.598587 
	C126.476448,131.062653 125.999725,131.126358 125.194519,131.040802 
	C123.964775,125.909950 123.063492,120.928368 122.179520,115.555687 
z"/>
<path fill="#444444" opacity="1.000000" stroke="none" 
	d="
M158.128235,197.796692 
	C159.198715,200.986816 160.269180,204.176926 161.039825,207.511688 
	C160.174561,207.111877 159.609131,206.567444 159.043701,206.022995 
	C159.043701,206.022995 158.950485,205.657196 158.882050,205.169540 
	C158.561295,204.131180 158.308960,203.580475 158.056610,203.029770 
	C158.056625,203.029770 157.965591,202.651611 157.987549,202.012817 
	C158.049088,200.181564 158.088669,198.989136 158.128235,197.796692 
z"/>
<path fill="#353535" opacity="1.000000" stroke="none" 
	d="
M154.163574,177.792633 
	C155.260544,180.408096 156.352982,183.386703 156.977936,186.678848 
	C155.978760,186.983826 155.447067,186.975266 154.915359,186.966690 
	C154.876633,186.588013 154.837921,186.209351 154.896713,185.290787 
	C154.701904,183.527679 154.409592,182.304459 154.117279,181.081238 
	C154.131195,180.106094 154.145111,179.130936 154.163574,177.792633 
z"/>
<path fill="#555555" opacity="1.000000" stroke="none" 
	d="
M65.983513,171.550232 
	C67.440201,171.194275 68.896896,170.838303 70.636780,170.335205 
	C72.668915,170.168060 74.417862,170.148026 76.865646,170.317139 
	C78.688820,170.982239 79.813141,171.458206 80.937462,171.934174 
	C76.228935,172.267776 71.520401,172.601395 66.394615,172.577316 
	C65.979416,171.996490 65.981468,171.773376 65.983513,171.550232 
z"/>
<path fill="#353535" opacity="1.000000" stroke="none" 
	d="
M81.225220,171.963928 
	C79.813141,171.458206 78.688820,170.982239 77.301041,170.350677 
	C80.444344,170.079956 83.851105,169.964844 87.617752,170.012024 
	C86.223518,170.666016 84.469414,171.157730 82.401108,171.785095 
	C81.895599,171.945053 81.704285,171.969376 81.225220,171.963928 
z"/>
<path fill="#707070" opacity="1.000000" stroke="none" 
	d="
M53.521461,170.516800 
	C56.922466,171.132599 59.890881,171.758957 62.939491,172.702087 
	C57.345570,172.926239 51.671452,172.833633 45.706570,172.378326 
	C47.973495,171.519547 50.531185,171.023453 53.521461,170.516800 
z"/>
<path fill="#393939" opacity="1.000000" stroke="none" 
	d="
M108.422951,172.055527 
	C107.984200,171.594635 107.971718,171.195511 107.932571,170.497284 
	C111.602303,170.010269 115.298706,169.822342 119.449951,169.664551 
	C119.920288,169.903610 119.935760,170.112534 119.972519,170.634979 
	C116.278946,171.338104 112.564087,171.727692 108.422951,172.055527 
z"/>
<path fill="#1C1C1C" opacity="1.000000" stroke="none" 
	d="
M199.121780,29.513952 
	C198.282425,31.282564 197.443054,33.051174 196.378296,34.655258 
	C196.282852,33.642769 196.412796,32.794807 196.471725,31.541538 
	C196.257858,30.902056 196.114975,30.667883 195.972092,30.433708 
	C196.333984,30.011658 196.695892,29.589613 197.639679,29.292419 
	C198.521622,29.449499 198.821701,29.481726 199.121780,29.513952 
z"/>
<path fill="#1C1C1C" opacity="1.000000" stroke="none" 
	d="
M192.993774,37.977871 
	C191.889801,39.271828 190.785828,40.565784 189.344482,41.914566 
	C189.841034,40.438206 190.674973,38.907024 191.967117,37.348560 
	C192.633469,37.523987 192.822952,37.742851 192.993774,37.977871 
z"/>
<path fill="#4E4E4E" opacity="1.000000" stroke="none" 
	d="
M172.707611,60.987755 
	C171.209167,63.196068 169.407196,65.562614 167.261353,67.958542 
	C168.746384,65.707268 170.575241,63.426632 172.707611,60.987755 
z"/>
<path fill="#313131" opacity="1.000000" stroke="none" 
	d="
M193.273026,37.842846 
	C192.822952,37.742851 192.633469,37.523987 192.263626,37.176838 
	C193.027161,35.559353 193.952393,34.086308 195.335938,32.304230 
	C196.043716,31.979078 196.293213,31.962961 196.542725,31.946846 
	C196.412796,32.794807 196.282852,33.642769 196.074432,34.741943 
	C195.181381,35.898048 194.366821,36.802937 193.273026,37.842846 
z"/>
<path fill="#444444" opacity="1.000000" stroke="none" 
	d="
M162.017426,215.975937 
	C162.817596,217.474091 163.617783,218.972244 163.985901,220.758667 
	C163.059631,221.038055 162.565384,221.029205 162.071152,221.020355 
	C162.071152,221.020340 161.982849,220.610580 161.980316,219.979492 
	C161.991013,218.224243 162.004227,217.100082 162.017426,215.975937 
z"/>
<path fill="#4E4E4E" opacity="1.000000" stroke="none" 
	d="
M164.895630,72.342636 
	C163.617615,72.535507 162.537781,72.459229 161.201660,72.168762 
	C162.719315,70.626305 164.493271,69.298035 166.619492,67.945282 
	C166.345779,69.305031 165.719803,70.689262 164.895630,72.342636 
z"/>
<path fill="#4E4E4E" opacity="1.000000" stroke="none" 
	d="
M210.462204,19.125736 
	C208.744629,20.383141 206.655014,21.580538 204.219360,22.779114 
	C205.945587,21.542105 208.017883,20.303915 210.462204,19.125736 
z"/>
<path fill="#4E4E4E" opacity="1.000000" stroke="none" 
	d="
M203.417892,22.823412 
	C203.779388,23.549656 203.796204,24.231714 203.808868,25.255766 
	C203.549393,25.869106 203.294098,26.140451 202.541168,26.636780 
	C201.480637,27.024063 200.917725,27.186359 200.027374,27.123661 
	C199.481079,26.749531 199.262207,26.600395 199.043335,26.451263 
	C200.386642,25.227255 201.729935,24.003241 203.417892,22.823412 
z"/>
<path fill="#555555" opacity="1.000000" stroke="none" 
	d="
M159.002121,206.423370 
	C159.609131,206.567444 160.174561,207.111877 160.950623,207.862854 
	C161.255951,210.144409 161.350677,212.219391 161.226837,214.688904 
	C160.325684,212.330185 159.643112,209.576965 159.002121,206.423370 
z"/>
<path fill="#4E4E4E" opacity="1.000000" stroke="none" 
	d="
M214.463440,22.448036 
	C213.844925,21.396231 213.484497,20.503450 213.073517,19.322996 
	C214.336823,20.114670 215.650711,21.194017 216.666794,22.691235 
	C216.170898,23.141605 215.972809,23.174107 215.774719,23.206608 
	C215.423660,23.006760 215.072617,22.806910 214.463440,22.448036 
z"/>
<path fill="#444444" opacity="1.000000" stroke="none" 
	d="
M154.906525,187.339767 
	C155.447067,186.975266 155.978760,186.983826 156.908417,187.027649 
	C157.454163,188.451065 157.601974,189.839218 157.463913,191.592453 
	C156.802795,191.965836 156.427567,191.974152 156.052338,191.982468 
	C155.667465,190.559265 155.282593,189.136047 154.906525,187.339767 
z"/>
<path fill="#4E4E4E" opacity="1.000000" stroke="none" 
	d="
M198.114929,238.625549 
	C197.664612,237.555756 197.390793,236.166840 197.079422,234.414642 
	C197.041855,234.051346 197.015411,234.019958 197.329163,234.034683 
	C198.041702,234.062180 198.440506,234.074966 198.839294,234.087753 
	C198.656677,235.493988 198.474060,236.900208 198.114929,238.625549 
z"/>
<path fill="#555555" opacity="1.000000" stroke="none" 
	d="
M162.025406,221.395569 
	C162.565384,221.029205 163.059631,221.038055 163.924789,221.051270 
	C164.386185,222.824554 164.476654,224.593460 164.286469,226.717728 
	C163.330429,225.305649 162.655045,223.538208 162.025406,221.395569 
z"/>
<path fill="#313131" opacity="1.000000" stroke="none" 
	d="
M198.895889,233.679016 
	C198.440506,234.074966 198.041702,234.062180 197.343781,234.042084 
	C197.074799,232.954849 197.104965,231.874954 197.235153,230.489227 
	C197.604996,230.148788 197.874802,230.114182 198.549057,230.025711 
	C198.953171,231.071320 198.952835,232.170792 198.895889,233.679016 
z"/>
<path fill="#313131" opacity="1.000000" stroke="none" 
	d="
M186.467728,287.626099 
	C186.976456,286.623810 187.727142,285.442596 188.761108,284.118866 
	C188.266144,285.133301 187.487915,286.290192 186.467728,287.626099 
z"/>
<path fill="#313131" opacity="1.000000" stroke="none" 
	d="
M216.168610,55.422615 
	C216.550262,55.139278 216.834076,55.110134 217.542847,55.030495 
	C217.960068,55.759193 217.952316,56.538387 217.635315,57.732437 
	C216.990906,58.200497 216.655731,58.253700 216.320572,58.306900 
	C216.320572,58.306900 216.081970,58.081398 215.962402,57.968544 
	C215.918808,57.129398 215.994781,56.403099 216.168610,55.422615 
z"/>
<path fill="#444444" opacity="1.000000" stroke="none" 
	d="
M154.068832,181.447937 
	C154.409592,182.304459 154.701904,183.527679 154.872498,185.006226 
	C154.507324,184.112579 154.263855,182.963608 154.068832,181.447937 
z"/>
<path fill="#4E4E4E" opacity="1.000000" stroke="none" 
	d="
M216.301331,58.620071 
	C216.655731,58.253700 216.990906,58.200497 217.579468,58.118324 
	C217.573303,59.152771 217.313751,60.216190 216.993805,61.608528 
	C216.716293,60.936050 216.499207,59.934647 216.301331,58.620071 
z"/>
<path fill="#4E4E4E" opacity="1.000000" stroke="none" 
	d="
M119.986801,91.965820 
	C119.814621,93.089996 119.606522,94.209030 119.237167,95.628525 
	C118.751266,94.854988 118.426620,93.780991 118.429535,92.365555 
	C119.151535,92.026917 119.545982,92.029724 119.940430,92.032524 
	C119.940430,92.032524 119.950867,91.960670 119.986801,91.965820 
z"/>
<path fill="#707070" opacity="1.000000" stroke="none" 
	d="
M214.303864,120.733932 
	C214.271790,121.095619 214.007843,121.217079 213.317505,121.428902 
	C212.468079,121.413239 212.045029,121.307213 211.274734,120.787048 
	C210.705978,119.800858 210.484436,119.228806 210.262909,118.656746 
	C210.413544,118.521194 210.564163,118.385651 210.940674,118.046768 
	C212.135056,118.726868 213.103500,119.610291 214.303864,120.733932 
z"/>
<path fill="#313131" opacity="1.000000" stroke="none" 
	d="
M215.800201,23.488483 
	C215.972809,23.174107 216.170898,23.141605 216.663147,23.044678 
	C217.253235,23.790174 217.549164,24.600100 217.872162,25.734703 
	C217.668549,26.035078 217.437866,26.010775 216.861404,25.938709 
	C216.285645,25.184086 216.055664,24.477224 215.800201,23.488483 
z"/>
<path fill="#555555" opacity="1.000000" stroke="none" 
	d="
M158.113129,197.595032 
	C158.088669,198.989136 158.049088,200.181564 157.970901,201.819046 
	C157.632355,200.787491 157.332397,199.310898 157.300095,197.428589 
	C157.567734,197.022888 157.983231,197.005539 157.983231,197.005539 
	C157.983231,197.005539 158.098022,197.393372 158.113129,197.595032 
z"/>
<path fill="#353535" opacity="1.000000" stroke="none" 
	d="
M156.061890,192.288483 
	C156.427567,191.974152 156.802795,191.965836 157.458191,191.941589 
	C157.821793,192.698288 157.905212,193.470917 157.684082,194.601013 
	C157.195068,194.939224 157.010620,194.919968 156.826172,194.900711 
	C156.574600,194.131973 156.323029,193.363251 156.061890,192.288483 
z"/>
<path fill="#4E4E4E" opacity="1.000000" stroke="none" 
	d="
M199.372223,29.544878 
	C198.821701,29.481726 198.521622,29.449499 197.826706,29.195612 
	C197.819122,28.269295 198.206390,27.564640 198.818481,26.655622 
	C199.262207,26.600395 199.481079,26.749531 199.961151,27.463642 
	C200.181290,28.488899 200.140213,28.949183 200.099152,29.409466 
	C199.940308,29.464912 199.781479,29.520359 199.372223,29.544878 
z"/>
<path fill="#707070" opacity="1.000000" stroke="none" 
	d="
M41.148373,171.158630 
	C41.809570,170.914322 42.154064,170.883942 43.014969,170.902435 
	C43.618099,171.577148 43.704815,172.203018 43.791534,172.828873 
	C42.804913,172.343430 41.818291,171.857986 41.148373,171.158630 
z"/>
<path fill="#555555" opacity="1.000000" stroke="none" 
	d="
M162.008636,215.986649 
	C162.004227,217.100082 161.991013,218.224243 161.967224,219.770325 
	C161.655640,219.058243 161.354630,217.924225 161.324005,216.404968 
	C161.594406,216.019699 162.015869,215.987503 162.015869,215.987503 
	C162.015869,215.987503 161.999847,215.997360 162.008636,215.986649 
z"/>
<path fill="#444444" opacity="1.000000" stroke="none" 
	d="
M119.951263,91.680344 
	C119.545982,92.029724 119.151535,92.026917 118.461342,92.026093 
	C118.134125,91.574318 118.102654,91.120567 118.079926,90.325294 
	C118.444420,89.977142 118.800171,89.970505 119.421379,89.956543 
	C119.778587,90.408875 119.870338,90.868523 119.951263,91.680344 
z"/>
<path fill="#444444" opacity="1.000000" stroke="none" 
	d="
M156.681168,195.088165 
	C157.010620,194.919968 157.195068,194.939224 157.655884,194.989304 
	C157.969498,195.461304 158.006744,195.902466 158.013611,196.674591 
	C157.983231,197.005539 157.567734,197.022888 157.359879,197.028503 
	C156.946732,196.447952 156.741440,195.861786 156.681168,195.088165 
z"/>
<path fill="#707070" opacity="1.000000" stroke="none" 
	d="
M124.628998,130.959839 
	C124.498909,131.501984 124.087227,132.135605 123.367996,132.883255 
	C123.489433,132.348633 123.918411,131.699982 124.628998,130.959839 
z"/>
<path fill="#555555" opacity="1.000000" stroke="none" 
	d="
M158.022217,203.357330 
	C158.308960,203.580475 158.561295,204.131180 158.872650,204.981018 
	C158.617065,204.748413 158.302444,204.216660 158.022217,203.357330 
z"/>
<path fill="#707070" opacity="1.000000" stroke="none" 
	d="
M65.722427,171.727295 
	C65.981468,171.773376 65.979416,171.996490 65.969833,172.554230 
	C65.800957,172.930618 65.639603,172.972397 65.228249,173.016388 
	C65.139282,172.647202 65.300308,172.275772 65.722427,171.727295 
z"/>
<path fill="#4E4E4E" opacity="1.000000" stroke="none" 
	d="
M196.471725,31.541538 
	C196.293213,31.962961 196.043716,31.979078 195.419434,31.983601 
	C195.222275,31.614977 195.399933,31.257946 195.774841,30.667313 
	C196.114975,30.667883 196.257858,30.902056 196.471725,31.541538 
z"/>
<path fill="#707070" opacity="1.000000" stroke="none" 
	d="
M218.964569,124.736511 
	C218.734756,124.806519 218.433884,124.610733 218.063828,124.147430 
	C218.294266,124.076851 218.593887,124.273781 218.964569,124.736511 
z"/>
<path fill="#4E4E4E" opacity="1.000000" stroke="none" 
	d="
M160.945206,71.861160 
	C160.852890,71.848778 160.649490,71.651176 160.310074,71.291161 
	C160.457779,71.234924 160.677795,71.417336 160.945206,71.861160 
z"/>
<path fill="#4E4E4E" opacity="1.000000" stroke="none" 
	d="
M115.219360,75.327774 
	C115.341469,75.357872 115.518356,75.641380 115.837219,76.132904 
	C115.744171,76.087677 115.509155,75.834435 115.219360,75.327774 
z"/>
<path fill="#444444" opacity="1.000000" stroke="none" 
	d="
M161.937912,215.719788 
	C162.015869,215.987503 161.594406,216.019699 161.384155,216.031448 
	C161.127991,215.863983 161.082092,215.684753 160.990906,215.231720 
	C161.250412,215.122650 161.555191,215.287354 161.937912,215.719788 
z"/>
<path fill="#707070" opacity="1.000000" stroke="none" 
	d="
M216.025482,121.705246 
	C215.757278,121.838120 215.389694,121.699669 214.974030,121.253891 
	C215.259323,121.109001 215.592712,121.271454 216.025482,121.705246 
z"/>
<path fill="#707070" opacity="1.000000" stroke="none" 
	d="
M217.034821,122.720947 
	C216.781586,122.817177 216.437561,122.646805 216.053192,122.175064 
	C216.323257,122.067253 216.633636,122.260788 217.034821,122.720947 
z"/>
<path fill="#707070" opacity="1.000000" stroke="none" 
	d="
M218.031204,123.725441 
	C217.776276,123.821297 217.433411,123.649315 217.051697,123.175865 
	C217.322998,123.068802 217.633133,123.263199 218.031204,123.725441 
z"/>
<path fill="#313131" opacity="1.000000" stroke="none" 
	d="
M210.019562,118.463661 
	C210.484436,119.228806 210.705978,119.800858 210.965530,120.677612 
	C209.251404,119.161537 207.499268,117.340775 205.847137,115.264198 
	C207.223511,116.095779 208.499863,117.183182 210.019562,118.463661 
z"/>
<path fill="#313131" opacity="1.000000" stroke="none" 
	d="
M200.343109,29.384005 
	C200.140213,28.949183 200.181290,28.488899 200.288574,27.688637 
	C200.917725,27.186359 201.480637,27.024063 202.333984,26.824306 
	C201.945297,27.644077 201.266174,28.501310 200.343109,29.384005 
z"/>
<path fill="#0D0D0D" opacity="1.000000" stroke="none" 
	d="
M192.578339,265.135254 
	C192.169830,266.028412 191.484131,267.082458 190.530624,268.327148 
	C190.942261,267.443939 191.621719,266.370056 192.578339,265.135254 
z"/>
</svg>